<?xml version="1.0" encoding="UTF-8" standalone="no"?>
<!-- Created with Inkscape (http://www.inkscape.org/) -->

<svg
   xmlns:dc="http://purl.org/dc/elements/1.1/"
   xmlns:cc="http://creativecommons.org/ns#"
   xmlns:rdf="http://www.w3.org/1999/02/22-rdf-syntax-ns#"
   xmlns:svg="http://www.w3.org/2000/svg"
   xmlns="http://www.w3.org/2000/svg"
   xmlns:sodipodi="http://sodipodi.sourceforge.net/DTD/sodipodi-0.dtd"
   xmlns:inkscape="http://www.inkscape.org/namespaces/inkscape"
   width="210mm"
   height="297mm"
   viewBox="0 0 744.09448819 1052.3622047"
   id="svg3488"
   version="1.1"
   inkscape:version="0.91 r13725"
   sodipodi:docname="sched_lws.svg"
   inkscape:export-filename="/home/llucido/rev/internship/storm/rapport/img/sched_ws.png"
   inkscape:export-xdpi="90"
   inkscape:export-ydpi="90">
  <defs
     id="defs3490" />
  <sodipodi:namedview
     id="base"
     pagecolor="#ffffff"
     bordercolor="#666666"
     borderopacity="1.0"
     inkscape:pageopacity="0.0"
     inkscape:pageshadow="2"
     inkscape:zoom="1.4"
     inkscape:cx="146.00643"
     inkscape:cy="820.11394"
     inkscape:document-units="px"
     inkscape:current-layer="layer1"
     showgrid="false"
     inkscape:window-width="1920"
     inkscape:window-height="1059"
     inkscape:window-x="0"
     inkscape:window-y="21"
     inkscape:window-maximized="0" />
  <metadata
     id="metadata3493">
    <rdf:RDF>
      <cc:Work
         rdf:about="">
        <dc:format>image/svg+xml</dc:format>
        <dc:type
           rdf:resource="http://purl.org/dc/dcmitype/StillImage" />
        <dc:title></dc:title>
      </cc:Work>
    </rdf:RDF>
  </metadata>
  <g
     inkscape:label="Layer 1"
     inkscape:groupmode="layer"
     id="layer1">
    <rect
       id="rect6"
       style="fill:none;stroke:#000000;stroke-width:0.5;stroke-linecap:butt;stroke-linejoin:miter;stroke-miterlimit:4;stroke-dasharray:none"
       rx="0"
       height="77.411896"
       width="35.187225"
       y="288.84473"
       x="188.33105" />
    <polyline
       id="polyline8"
       style="fill:none;stroke:#000000;stroke-width:21.31455379;stroke-linecap:butt;stroke-linejoin:bevel;stroke-miterlimit:4;stroke-dasharray:none"
       points="-1453125,-17008050 -1453126,-17008049 -1453129,-17008048 -1453134,-17008045 -1453143,-17008040 -1453155,-17008033 -1453170,-17008024 -1453190,-17008013 -1453213,-17008000 -1453241,-17007983 -1453272,-17007965 -1453307,-17007944 -1453344,-17007921 -1453384,-17007896 -1453426,-17007869 -1453469,-17007841 -1453514,-17007811 -1453559,-17007780 -1453604,-17007748 -1453648,-17007715 -1453692,-17007681 -1453736,-17007646 -1453778,-17007609 -1453818,-17007572 -1453857,-17007533 -1453894,-17007493 -1453929,-17007452 -1453962,-17007409 -1453992,-17007364 -1454019,-17007318 -1454044,-17007269 -1454064,-17007219 -1454081,-17007166 -1454092,-17007112 -1454099,-17007056 -1454100,-17007000 -1454095,-17006944 -1454084,-17006890 -1454068,-17006838 -1454048,-17006790 -1454023,-17006746 -1453996,-17006707 -1453966,-17006672 -1453933,-17006641 -1453899,-17006615 -1453863,-17006593 -1453826,-17006574 -1453788,-17006559 -1453749,-17006547 -1453710,-17006537 -1453670,-17006529 -1453630,-17006523 -1453590,-17006517 -1453550,-17006512 -1453510,-17006508 -1453470,-17006502 -1453431,-17006496 -1453392,-17006488 -1453353,-17006478 -1453315,-17006466 -1453278,-17006451 -1453243,-17006432 -1453209,-17006410 -1453176,-17006384 -1453147,-17006353 -1453120,-17006318 -1453096,-17006279 -1453076,-17006235 -1453061,-17006187 -1453051,-17006135 -1453047,-17006081 -1453050,-17006025 -1453058,-17005974 -1453072,-17005924 -1453091,-17005875 -1453113,-17005827 -1453140,-17005781 -1453169,-17005736 -1453202,-17005693 -1453237,-17005652 -1453275,-17005612 -1453314,-17005573 -1453356,-17005536 -1453399,-17005500 -1453444,-17005465 -1453491,-17005431 -1453538,-17005397 -1453587,-17005365 -1453637,-17005334 -1453687,-17005303 -1453738,-17005273 -1453788,-17005245 -1453839,-17005217 -1453889,-17005190 -1453938,-17005164 -1453985,-17005139 -1454031,-17005116 -1454074,-17005094 -1454114,-17005074 -1454152,-17005056 -1454186,-17005040 -1454216,-17005025 -1454243,-17005013 -1454265,-17005003 -1454283,-17004994 -1454298,-17004987 -1454309,-17004982 -1454316,-17004979 -1454321,-17004977 -1454324,-17004976 -1454325,-17004975 "
       transform="matrix(0.02345815,0,0,0.02345815,34305.864,399385.69)" />
    <polyline
       id="polyline12"
       style="fill:none;stroke:#000000;stroke-width:21.31455379;stroke-linecap:butt;stroke-linejoin:bevel;stroke-miterlimit:4;stroke-dasharray:none"
       points="-1446600,-17008050 -1446601,-17008049 -1446604,-17008048 -1446609,-17008045 -1446618,-17008040 -1446630,-17008033 -1446645,-17008024 -1446665,-17008013 -1446688,-17008000 -1446716,-17007983 -1446747,-17007965 -1446782,-17007944 -1446819,-17007921 -1446859,-17007896 -1446901,-17007869 -1446944,-17007841 -1446989,-17007811 -1447034,-17007780 -1447079,-17007748 -1447123,-17007715 -1447167,-17007681 -1447211,-17007646 -1447253,-17007609 -1447293,-17007572 -1447332,-17007533 -1447369,-17007493 -1447404,-17007452 -1447437,-17007409 -1447467,-17007364 -1447494,-17007318 -1447519,-17007269 -1447539,-17007219 -1447556,-17007166 -1447567,-17007112 -1447574,-17007056 -1447575,-17007000 -1447570,-17006944 -1447559,-17006890 -1447543,-17006838 -1447523,-17006790 -1447498,-17006746 -1447471,-17006707 -1447441,-17006672 -1447408,-17006641 -1447374,-17006615 -1447338,-17006593 -1447301,-17006574 -1447263,-17006559 -1447224,-17006547 -1447185,-17006537 -1447145,-17006529 -1447105,-17006523 -1447065,-17006517 -1447025,-17006512 -1446985,-17006508 -1446945,-17006502 -1446906,-17006496 -1446867,-17006488 -1446828,-17006478 -1446790,-17006466 -1446753,-17006451 -1446718,-17006432 -1446684,-17006410 -1446651,-17006384 -1446622,-17006353 -1446595,-17006318 -1446571,-17006279 -1446551,-17006235 -1446536,-17006187 -1446526,-17006135 -1446522,-17006081 -1446525,-17006025 -1446533,-17005974 -1446547,-17005924 -1446566,-17005875 -1446588,-17005827 -1446615,-17005781 -1446644,-17005736 -1446677,-17005693 -1446712,-17005652 -1446750,-17005612 -1446789,-17005573 -1446831,-17005536 -1446874,-17005500 -1446919,-17005465 -1446966,-17005431 -1447013,-17005397 -1447062,-17005365 -1447112,-17005334 -1447162,-17005303 -1447213,-17005273 -1447263,-17005245 -1447314,-17005217 -1447364,-17005190 -1447413,-17005164 -1447460,-17005139 -1447506,-17005116 -1447549,-17005094 -1447589,-17005074 -1447627,-17005056 -1447661,-17005040 -1447691,-17005025 -1447718,-17005013 -1447740,-17005003 -1447758,-17004994 -1447773,-17004987 -1447784,-17004982 -1447791,-17004979 -1447796,-17004977 -1447799,-17004976 -1447800,-17004975 "
       transform="matrix(0.02345815,0,0,0.02345815,34305.864,399385.69)" />
    <rect
       id="rect14"
       style="fill:none;stroke:#000000;stroke-width:0.5;stroke-linecap:butt;stroke-linejoin:miter;stroke-miterlimit:4;stroke-dasharray:none"
       rx="0"
       height="77.411896"
       width="35.187225"
       y="288.84473"
       x="417.048" />
    <polyline
       id="polyline16"
       style="fill:none;stroke:#000000;stroke-width:21.31455379;stroke-linecap:butt;stroke-linejoin:bevel;stroke-miterlimit:4;stroke-dasharray:none"
       points="-1443375,-17008050 -1443376,-17008049 -1443379,-17008048 -1443384,-17008045 -1443393,-17008040 -1443405,-17008033 -1443420,-17008024 -1443440,-17008013 -1443463,-17008000 -1443491,-17007983 -1443522,-17007965 -1443557,-17007944 -1443594,-17007921 -1443634,-17007896 -1443676,-17007869 -1443719,-17007841 -1443764,-17007811 -1443809,-17007780 -1443854,-17007748 -1443898,-17007715 -1443942,-17007681 -1443986,-17007646 -1444028,-17007609 -1444068,-17007572 -1444107,-17007533 -1444144,-17007493 -1444179,-17007452 -1444212,-17007409 -1444242,-17007364 -1444269,-17007318 -1444294,-17007269 -1444314,-17007219 -1444331,-17007166 -1444342,-17007112 -1444349,-17007056 -1444350,-17007000 -1444345,-17006944 -1444334,-17006890 -1444318,-17006838 -1444298,-17006790 -1444273,-17006746 -1444246,-17006707 -1444216,-17006672 -1444183,-17006641 -1444149,-17006615 -1444113,-17006593 -1444076,-17006574 -1444038,-17006559 -1443999,-17006547 -1443960,-17006537 -1443920,-17006529 -1443880,-17006523 -1443840,-17006517 -1443800,-17006512 -1443760,-17006508 -1443720,-17006502 -1443681,-17006496 -1443642,-17006488 -1443603,-17006478 -1443565,-17006466 -1443528,-17006451 -1443493,-17006432 -1443459,-17006410 -1443426,-17006384 -1443397,-17006353 -1443370,-17006318 -1443346,-17006279 -1443326,-17006235 -1443311,-17006187 -1443301,-17006135 -1443297,-17006081 -1443300,-17006025 -1443308,-17005974 -1443322,-17005924 -1443341,-17005875 -1443363,-17005827 -1443390,-17005781 -1443419,-17005736 -1443452,-17005693 -1443487,-17005652 -1443525,-17005612 -1443564,-17005573 -1443606,-17005536 -1443649,-17005500 -1443694,-17005465 -1443741,-17005431 -1443788,-17005397 -1443837,-17005365 -1443887,-17005334 -1443937,-17005303 -1443988,-17005273 -1444038,-17005245 -1444089,-17005217 -1444139,-17005190 -1444188,-17005164 -1444235,-17005139 -1444281,-17005116 -1444324,-17005094 -1444364,-17005074 -1444402,-17005056 -1444436,-17005040 -1444466,-17005025 -1444493,-17005013 -1444515,-17005003 -1444533,-17004994 -1444548,-17004987 -1444559,-17004982 -1444566,-17004979 -1444571,-17004977 -1444574,-17004976 -1444575,-17004975 "
       transform="matrix(0.02345815,0,0,0.02345815,34305.864,399385.69)" />
    <rect
       id="rect18"
       style="fill:none;stroke:#000000;stroke-width:0.5;stroke-linecap:butt;stroke-linejoin:miter;stroke-miterlimit:4;stroke-dasharray:none"
       rx="2.4631057"
       height="56.299561"
       width="98.524231"
       y="144.93135"
       x="269.26169" />
    <rect
       id="rect26"
       style="fill:none;stroke:#000000;stroke-width:0.5;stroke-linecap:butt;stroke-linejoin:miter;stroke-miterlimit:4;stroke-dasharray:none"
       rx="0"
       height="77.411896"
       width="35.187225"
       y="288.84473"
       x="263.98361" />
    <polyline
       id="polyline28"
       style="fill:none;stroke:#000000;stroke-width:21.31455379;stroke-linecap:butt;stroke-linejoin:bevel;stroke-miterlimit:4;stroke-dasharray:none"
       points="-1449900,-17008050 -1449901,-17008049 -1449904,-17008048 -1449909,-17008045 -1449918,-17008040 -1449930,-17008033 -1449945,-17008024 -1449965,-17008013 -1449988,-17008000 -1450016,-17007983 -1450047,-17007965 -1450082,-17007944 -1450119,-17007921 -1450159,-17007896 -1450201,-17007869 -1450244,-17007841 -1450289,-17007811 -1450334,-17007780 -1450379,-17007748 -1450423,-17007715 -1450467,-17007681 -1450511,-17007646 -1450553,-17007609 -1450593,-17007572 -1450632,-17007533 -1450669,-17007493 -1450704,-17007452 -1450737,-17007409 -1450767,-17007364 -1450794,-17007318 -1450819,-17007269 -1450839,-17007219 -1450856,-17007166 -1450867,-17007112 -1450874,-17007056 -1450875,-17007000 -1450870,-17006944 -1450859,-17006890 -1450843,-17006838 -1450823,-17006790 -1450798,-17006746 -1450771,-17006707 -1450741,-17006672 -1450708,-17006641 -1450674,-17006615 -1450638,-17006593 -1450601,-17006574 -1450563,-17006559 -1450524,-17006547 -1450485,-17006537 -1450445,-17006529 -1450405,-17006523 -1450365,-17006517 -1450325,-17006512 -1450285,-17006508 -1450245,-17006502 -1450206,-17006496 -1450167,-17006488 -1450128,-17006478 -1450090,-17006466 -1450053,-17006451 -1450018,-17006432 -1449984,-17006410 -1449951,-17006384 -1449922,-17006353 -1449895,-17006318 -1449871,-17006279 -1449851,-17006235 -1449836,-17006187 -1449826,-17006135 -1449822,-17006081 -1449825,-17006025 -1449833,-17005974 -1449847,-17005924 -1449866,-17005875 -1449888,-17005827 -1449915,-17005781 -1449944,-17005736 -1449977,-17005693 -1450012,-17005652 -1450050,-17005612 -1450089,-17005573 -1450131,-17005536 -1450174,-17005500 -1450219,-17005465 -1450266,-17005431 -1450313,-17005397 -1450362,-17005365 -1450412,-17005334 -1450462,-17005303 -1450513,-17005273 -1450563,-17005245 -1450614,-17005217 -1450664,-17005190 -1450713,-17005164 -1450760,-17005139 -1450806,-17005116 -1450849,-17005094 -1450889,-17005074 -1450927,-17005056 -1450961,-17005040 -1450991,-17005025 -1451018,-17005013 -1451040,-17005003 -1451058,-17004994 -1451073,-17004987 -1451084,-17004982 -1451091,-17004979 -1451096,-17004977 -1451099,-17004976 -1451100,-17004975 "
       transform="matrix(0.02345815,0,0,0.02345815,34305.864,399385.69)" />
    <polyline
       id="polyline30"
       style="fill:none;stroke:#000000;stroke-width:42.62910843;stroke-linecap:butt;stroke-linejoin:miter;stroke-miterlimit:6;stroke-dasharray:none"
       points="-1448775,-17016450 -1453713,-17012860 "
       transform="matrix(0.02345815,0,0,0.02345815,34305.864,399375.67)" />
    <polyline
       id="polyline32"
       style="fill:none;stroke:#000000;stroke-width:127.88732274;stroke-miterlimit:6;stroke-dasharray:none"
       points="-1453643 -17012944 -1453723 -17012850 -1453608 -17012896 "
       transform="matrix(0.02345815,0,0,0.02345815,34305.864,399375.67)" />
    <polyline
       id="polyline34"
       style="fill:none;stroke:#000000;stroke-width:42.62910843;stroke-linecap:butt;stroke-linejoin:miter;stroke-miterlimit:6;stroke-dasharray:none"
       points="-1448775,-17016450 -1450344,-17012940 "
       transform="matrix(0.02345815,0,0,0.02345815,34305.864,399375.67)" />
    <polyline
       id="polyline36"
       style="fill:none;stroke:#000000;stroke-width:127.88732274;stroke-miterlimit:6;stroke-dasharray:none"
       points="-1450326 -17013046 -1450348 -17012925 -1450271 -17013022 "
       transform="matrix(0.02345815,0,0,0.02345815,34305.864,399375.67)" />
    <polyline
       id="polyline38"
       style="fill:none;stroke:#000000;stroke-width:42.62910843;stroke-linecap:butt;stroke-linejoin:miter;stroke-miterlimit:6;stroke-dasharray:none"
       points="-1448775,-17016450 -1443913,-17012860 "
       transform="matrix(0.02345815,0,0,0.02345815,34305.864,399375.67)" />
    <polyline
       id="polyline40"
       style="fill:none;stroke:#000000;stroke-width:127.88732274;stroke-miterlimit:6;stroke-dasharray:none"
       points="-1444013 -17012897 -1443899 -17012850 -1443977 -17012945 "
       transform="matrix(0.02345815,0,0,0.02345815,34305.864,399375.67)" />
    <polyline
       id="polyline42"
       style="fill:none;stroke:#000000;stroke-width:42.62910843;stroke-linecap:butt;stroke-linejoin:miter;stroke-miterlimit:6;stroke-dasharray:none"
       points="-1448775,-17016450 -1447077,-17012948 "
       transform="matrix(0.02345815,0,0,0.02345815,34305.864,399375.67)" />
    <polyline
       id="polyline44"
       style="fill:none;stroke:#000000;stroke-width:127.88732274;stroke-miterlimit:6;stroke-dasharray:none"
       points="-1447148 -17013027 -1447069 -17012933 -1447094 -17013054 "
       transform="matrix(0.02345815,0,0,0.02345815,34305.864,399375.67)" />
    <rect
       id="rect50"
       style="fill:#00b000;stroke:#000000;stroke-width:0.16420706;stroke-linecap:butt;stroke-linejoin:miter"
       rx="0"
       height="24.631058"
       width="28.14978"
       y="325.81479"
       x="267.50232" />
    <rect
       id="rect56"
       style="fill:#00b000;stroke:#000000;stroke-width:0.16420706;stroke-linecap:butt;stroke-linejoin:miter"
       rx="0"
       height="15.834251"
       width="28.14978"
       y="304.70245"
       x="267.50232" />
    <rect
       id="rect58"
       style="fill:#00b000;stroke:#000000;stroke-width:0.21643215;stroke-linecap:butt;stroke-linejoin:miter"
       rx="0"
       height="15.310573"
       width="28.097555"
       y="347.42465"
       x="344.5827" />
    <polyline
       id="polyline60"
       style="fill:none;stroke:#00b000;stroke-width:42.62910843;stroke-linecap:butt;stroke-linejoin:miter;stroke-miterlimit:6;stroke-dasharray:none"
       points="-1447200,-17008050 -1447200,-17009384 "
       transform="matrix(0.02345815,0,0,0.02345815,34305.864,399379.96)" />
    <polyline
       id="polyline62"
       style="fill:none;stroke:#00b000;stroke-width:127.88732274;stroke-miterlimit:6;stroke-dasharray:none"
       points="-1447169 -17009277 -1447199 -17009397 -1447229 -17009277 "
       transform="matrix(0.02345815,0,0,0.02345815,34305.864,399379.96)" />
    <polyline
       id="polyline64"
       style="fill:none;stroke:#00b000;stroke-width:42.62910843;stroke-linecap:butt;stroke-linejoin:miter;stroke-miterlimit:6;stroke-dasharray:none"
       points="-1443975,-17008125 -1443975,-17009384 "
       transform="matrix(0.02345815,0,0,0.02345815,34305.864,399379.96)" />
    <polyline
       id="polyline66"
       style="fill:none;stroke:#00b000;stroke-width:127.88732274;stroke-miterlimit:6;stroke-dasharray:none"
       points="-1443944 -17009277 -1443974 -17009397 -1444004 -17009277 "
       transform="matrix(0.02345815,0,0,0.02345815,34305.864,399379.96)" />
    <rect
       id="rect68"
       style="fill:#00b000;stroke:#000000;stroke-width:0.16420706;stroke-linecap:butt;stroke-linejoin:miter"
       rx="0"
       height="8.7968063"
       width="28.14978"
       y="353.96454"
       x="267.50232" />
    <g
       id="g4502"
       style="stroke-width:1;stroke-miterlimit:4;stroke-dasharray:none"
       transform="translate(0,7.5)">
      <polyline
         transform="matrix(0.02345815,0,0,0.02345815,34305.864,399368.51)"
         points="-1449375,-17012083 -1449375,-17009492 "
         style="fill:none;stroke:#000000;stroke-width:42.62910843;stroke-linecap:butt;stroke-linejoin:miter;stroke-miterlimit:4;stroke-dasharray:none"
         id="polyline70" />
      <polyline
         transform="matrix(0.02345815,0,0,0.02345815,34305.864,399368.51)"
         points="-1449404 -17009596 -1449374 -17009476 -1449344 -17009596 "
         style="fill:none;stroke:#000000;stroke-width:42.62910843;stroke-miterlimit:4;stroke-dasharray:none"
         id="polyline72" />
      <polyline
         transform="matrix(0.02345815,0,0,0.02345815,34305.864,399368.51)"
         points="-1449344 -17011977 -1449374 -17012097 -1449404 -17011977 "
         style="fill:none;stroke:#000000;stroke-width:42.62910843;stroke-miterlimit:4;stroke-dasharray:none"
         id="polyline74" />
    </g>
    <g
       id="g6281"
       transform="matrix(0.93704612,0,0,0.89201242,12.886325,42.717677)">
      <polyline
         transform="matrix(0.02345815,0,0,0.02345815,34305.864,399379.96)"
         points="-1453650,-17009400 -1453649,-17009399 -1453648,-17009398 -1453645,-17009394 -1453640,-17009389 -1453632,-17009382 -1453623,-17009372 -1453611,-17009360 -1453596,-17009345 -1453578,-17009327 -1453557,-17009306 -1453533,-17009283 -1453506,-17009257 -1453476,-17009228 -1453444,-17009197 -1453409,-17009164 -1453371,-17009130 -1453332,-17009094 -1453291,-17009057 -1453248,-17009018 -1453204,-17008980 -1453158,-17008941 -1453111,-17008901 -1453063,-17008862 -1453014,-17008824 -1452963,-17008785 -1452912,-17008748 -1452860,-17008711 -1452807,-17008675 -1452753,-17008641 -1452698,-17008607 -1452642,-17008575 -1452584,-17008544 -1452525,-17008515 -1452464,-17008487 -1452402,-17008462 -1452338,-17008438 -1452272,-17008416 -1452205,-17008398 -1452136,-17008381 -1452065,-17008368 -1451994,-17008358 -1451922,-17008352 -1451850,-17008350 -1451776,-17008352 -1451703,-17008359 -1451633,-17008370 -1451566,-17008384 -1451501,-17008402 -1451440,-17008422 -1451382,-17008446 -1451326,-17008471 -1451273,-17008499 -1451223,-17008529 -1451176,-17008560 -1451130,-17008593 -1451087,-17008628 -1451045,-17008664 -1451005,-17008701 -1450967,-17008739 -1450930,-17008778 -1450894,-17008818 -1450860,-17008859 -1450827,-17008900 -1450795,-17008941 -1450765,-17008982 -1450736,-17009022 -1450708,-17009062 -1450682,-17009101 -1450657,-17009138 -1450634,-17009174 -1450613,-17009208 -1450594,-17009239 -1450576,-17009268 -1450560,-17009295 -1450547,-17009318 -1450535,-17009338 -1450525,-17009355 -1450517,-17009369 -1450511,-17009380 -1450507,-17009388 -1450517,-17009372 "
         style="fill:none;stroke:#ff0000;stroke-width:42.62910843;stroke-linecap:butt;stroke-linejoin:bevel;stroke-miterlimit:6;stroke-dasharray:none"
         id="polyline76" />
      <polyline
         transform="matrix(0.02345815,0,0,0.02345815,34305.864,399379.96)"
         points="-1450529 -17009292 -1450492 -17009410 -1450580 -17009323 "
         style="fill:none;stroke:#ff0000;stroke-width:127.88732147;stroke-miterlimit:6;stroke-dasharray:none"
         id="polyline78" />
    </g>
    <polyline
       id="polyline80"
       style="fill:none;stroke:#008f00;stroke-width:42.62910843;stroke-linecap:butt;stroke-linejoin:bevel;stroke-miterlimit:6;stroke-dasharray:none"
       points="-1454175,-17007750 -1454176,-17007751 -1454178,-17007753 -1454182,-17007757 -1454187,-17007763 -1454195,-17007771 -1454205,-17007782 -1454218,-17007796 -1454232,-17007812 -1454249,-17007831 -1454267,-17007852 -1454287,-17007875 -1454307,-17007901 -1454328,-17007928 -1454348,-17007956 -1454369,-17007986 -1454389,-17008017 -1454408,-17008050 -1454426,-17008083 -1454443,-17008118 -1454458,-17008155 -1454471,-17008193 -1454482,-17008233 -1454491,-17008275 -1454497,-17008319 -1454500,-17008366 -1454500,-17008415 -1454496,-17008467 -1454488,-17008520 -1454475,-17008575 -1454459,-17008626 -1454440,-17008677 -1454417,-17008726 -1454393,-17008772 -1454367,-17008817 -1454339,-17008859 -1454309,-17008899 -1454279,-17008938 -1454248,-17008974 -1454215,-17009009 -1454182,-17009043 -1454149,-17009075 -1454115,-17009107 -1454080,-17009137 -1454045,-17009166 -1454011,-17009194 -1453977,-17009221 -1453943,-17009246 -1453911,-17009270 -1453881,-17009292 -1453852,-17009313 -1453826,-17009331 -1453803,-17009348 -1453782,-17009362 -1453765,-17009373 -1453751,-17009382 -1453741,-17009389 -1453739,-17009392 "
       transform="matrix(0.02345815,0,0,0.02345815,34305.864,399379.96)" />
    <polyline
       id="polyline82"
       style="fill:none;stroke:#008f00;stroke-width:127.88732274;stroke-miterlimit:6;stroke-dasharray:none"
       points="-1453808 -17009307 -1453725 -17009398 -1453841 -17009357 "
       transform="matrix(0.02345815,0,0,0.02345815,34305.864,399379.96)" />
    <polyline
       id="polyline84"
       style="fill:none;stroke:#00b000;stroke-width:42.62910843;stroke-linecap:butt;stroke-linejoin:bevel;stroke-miterlimit:6;stroke-dasharray:none"
       points="-1450275,-17008050 -1450274,-17008051 -1450271,-17008052 -1450265,-17008054 -1450257,-17008058 -1450245,-17008063 -1450230,-17008071 -1450212,-17008079 -1450190,-17008090 -1450165,-17008102 -1450138,-17008116 -1450108,-17008132 -1450077,-17008149 -1450045,-17008167 -1450012,-17008186 -1449980,-17008206 -1449947,-17008228 -1449915,-17008250 -1449884,-17008274 -1449854,-17008299 -1449826,-17008325 -1449799,-17008353 -1449774,-17008382 -1449750,-17008414 -1449730,-17008447 -1449711,-17008483 -1449696,-17008522 -1449685,-17008563 -1449678,-17008606 -1449675,-17008650 -1449678,-17008695 -1449685,-17008740 -1449696,-17008784 -1449711,-17008826 -1449730,-17008866 -1449750,-17008905 -1449774,-17008943 -1449799,-17008978 -1449826,-17009013 -1449854,-17009046 -1449884,-17009079 -1449915,-17009110 -1449947,-17009140 -1449980,-17009170 -1450013,-17009198 -1450045,-17009226 -1450077,-17009252 -1450108,-17009277 -1450138,-17009299 -1450165,-17009320 -1450190,-17009339 -1450212,-17009355 -1450230,-17009368 -1450245,-17009379 -1450257,-17009387 -1450263,-17009391 "
       transform="matrix(0.02345815,0,0,0.02345815,34305.864,399379.96)" />
    <polyline
       id="polyline86"
       style="fill:none;stroke:#00b000;stroke-width:127.88732274;stroke-miterlimit:6;stroke-dasharray:none"
       points="-1450156 -17009353 -1450272 -17009398 -1450190 -17009304 "
       transform="matrix(0.02345815,0,0,0.02345815,34305.864,399379.96)" />
    <text
       id="text90"
       font-size="240"
       font-weight="bold"
       font-style="normal"
       y="408.78448"
       x="228.96906"
       xml:space="preserve"
       style="font-style:normal;font-weight:bold;font-size:5.62995577px;font-family:Times;text-anchor:start;fill:#ff0000;stroke-width:0.025in"><tspan
         style="font-style:normal;font-variant:normal;font-weight:bold;font-stretch:normal;font-size:12.5px;font-family:sans-serif;-inkscape-font-specification:'sans-serif Bold'"
         id="tspan4454">vole</tspan></text>
    <g
       style="fill:none;stroke-width:0.025in"
       id="g92"
       transform="matrix(2.5850084e-7,0.02345815,-0.02345815,2.5850084e-7,311.15557,288.1704)">
      <text
         id="text94"
         font-size="324"
         font-weight="normal"
         font-style="normal"
         y="0"
         x="0"
         xml:space="preserve"
         style="font-style:normal;font-weight:normal;font-size:324px;font-family:Times;text-anchor:start;fill:#000000"><tspan
           style="font-style:normal;font-variant:normal;font-weight:normal;font-stretch:normal;font-size:532.86383057px;font-family:sans-serif;-inkscape-font-specification:sans-serif"
           id="tspan4446" /></text>
    </g>
    <text
       id="text96"
       font-size="240"
       font-weight="bold"
       font-style="normal"
       y="388.4902"
       x="438.16037"
       xml:space="preserve"
       style="font-style:normal;font-weight:bold;font-size:5.62995577px;font-family:Times;text-anchor:start;fill:#008f00;stroke-width:0.025in"><tspan
         style="font-size:12.5px;-inkscape-font-specification:'sans-serif Bold';font-family:sans-serif;font-weight:bold;font-style:normal;font-stretch:normal;font-variant:normal"
         id="tspan4444">pull</tspan></text>
    <text
       id="text98"
       font-size="240"
       font-weight="bold"
       font-style="normal"
       y="238.15404"
       x="385.37952"
       xml:space="preserve"
       style="font-style:normal;font-weight:bold;font-size:5.62995577px;font-family:Times;text-anchor:start;fill:#000000;stroke-width:0.025in"><tspan
         style="font-size:12.5px;-inkscape-font-specification:'sans-serif Bold';font-family:sans-serif;font-weight:bold;font-style:normal;font-stretch:normal;font-variant:normal"
         id="tspan4442">push</tspan></text>
    <flowRoot
       xml:space="preserve"
       id="flowRoot3390"
       style="font-style:normal;font-weight:normal;font-size:12.5px;line-height:125%;font-family:sans-serif;text-align:center;letter-spacing:0px;word-spacing:0px;text-anchor:middle;fill:#000000;fill-opacity:1;stroke:none;stroke-width:1px;stroke-linecap:butt;stroke-linejoin:miter;stroke-opacity:1"
       transform="translate(-96.469568,76.858251)"><flowRegion
         id="flowRegion3392"><rect
           id="rect3394"
           width="90.913727"
           height="43.941635"
           x="368.70569"
           y="80.595451"
           style="font-size:12.5px;text-align:center;text-anchor:middle" /></flowRegion><flowPara
         id="flowPara3398">Ordonnanceur</flowPara><flowPara
         id="flowPara4782">Work Stealing</flowPara></flowRoot>    <polyline
       id="polyline64-3"
       style="fill:none;stroke:#00b000;stroke-width:42.62910843;stroke-linecap:butt;stroke-linejoin:miter;stroke-miterlimit:6;stroke-dasharray:none"
       points="-1443975,-17008125 -1443975,-17009384 "
       transform="matrix(0.02345815,0,0,0.0198476,34192.37,337713.15)" />
    <polyline
       id="polyline66-6"
       style="fill:none;stroke:#00b000;stroke-width:127.88732147;stroke-miterlimit:6;stroke-dasharray:none"
       points="-1443944 -17009277 -1443974 -17009397 -1444004 -17009277 "
       transform="matrix(0.02345815,0,0,0.02345815,34192.37,399124.67)" />
    <text
       id="text96-7"
       font-size="240"
       font-weight="bold"
       font-style="normal"
       y="130.42813"
       x="324.66614"
       xml:space="preserve"
       style="font-style:normal;font-weight:bold;font-size:5.62995577px;font-family:Times;text-anchor:start;fill:#008f00;stroke-width:0.025in"><tspan
         style="font-size:12.5px;-inkscape-font-specification:'sans-serif Bold';font-family:sans-serif;font-weight:bold;font-style:normal;font-stretch:normal;font-variant:normal"
         id="tspan4456">pull</tspan></text>
    <text
       xml:space="preserve"
       style="font-style:normal;font-weight:normal;font-size:40px;line-height:125%;font-family:sans-serif;text-align:center;letter-spacing:0px;word-spacing:0px;text-anchor:middle;fill:#000000;fill-opacity:1;stroke:none;stroke-width:1px;stroke-linecap:butt;stroke-linejoin:miter;stroke-opacity:1"
       x="318.81036"
       y="80.682114"
       id="text4423"
       sodipodi:linespacing="125%"><tspan
         sodipodi:role="line"
         id="tspan4425"
         x="320.80011"
         y="80.682114"
         style="font-size:12.5px;text-align:center;text-anchor:middle">Tâches soumises </tspan><tspan
         sodipodi:role="line"
         x="318.81036"
         y="96.307114"
         style="font-size:12.5px;text-align:center;text-anchor:middle"
         id="tspan4778">par l'application</tspan></text>
    <rect
       id="rect18-5"
       style="fill:none;stroke:#000000;stroke-width:0.51308966;stroke-linecap:butt;stroke-linejoin:miter;stroke-miterlimit:4;stroke-dasharray:none"
       rx="3.0941236"
       height="47.195099"
       width="123.76495"
       y="61.125187"
       x="256.82065" />
    <flowRoot
       xml:space="preserve"
       id="flowRoot4518"
       style="fill:black;stroke:none;stroke-opacity:1;stroke-width:1px;stroke-linejoin:miter;stroke-linecap:butt;fill-opacity:1;font-family:sans-serif;font-style:normal;font-weight:normal;font-size:40px;line-height:125%;letter-spacing:0px;word-spacing:0px"><flowRegion
         id="flowRegion4520"><rect
           id="rect4522"
           width="46.42857"
           height="45"
           x="109.28571"
           y="331.64792" /></flowRegion><flowPara
         id="flowPara4524" /></flowRoot>    <flowRoot
       xml:space="preserve"
       id="flowRoot4526"
       style="font-style:normal;font-weight:normal;font-size:12.5px;line-height:125%;font-family:sans-serif;text-align:center;letter-spacing:0px;word-spacing:0px;text-anchor:middle;fill:#000000;fill-opacity:1;stroke:none;stroke-width:1px;stroke-linecap:butt;stroke-linejoin:miter;stroke-opacity:1"
       transform="translate(0.50507627,-7.0710678)"><flowRegion
         id="flowRegion4528"><rect
           id="rect4530"
           width="59.841553"
           height="64.249825"
           x="125.71429"
           y="301.64792"
           style="font-size:12.5px;text-align:center;text-anchor:middle" /></flowRegion><flowPara
         id="flowPara4532">File de tâches d'un ouvrier</flowPara></flowRoot>    <flowRoot
       xml:space="preserve"
       id="flowRoot4534"
       style="fill:black;stroke:none;stroke-opacity:1;stroke-width:1px;stroke-linejoin:miter;stroke-linecap:butt;fill-opacity:1;font-family:sans-serif;font-style:normal;font-weight:normal;font-size:40px;line-height:125%;letter-spacing:0px;word-spacing:0px"><flowRegion
         id="flowRegion4536"><rect
           id="rect4538"
           width="617.14288"
           height="506.42856"
           x="-60"
           y="-1.9235026" /></flowRegion><flowPara
         id="flowPara4540" /></flowRoot>    <rect
       id="rect10"
       style="fill:none;stroke:#000000;stroke-width:0.5;stroke-linecap:butt;stroke-linejoin:miter;stroke-miterlimit:4;stroke-dasharray:none"
       rx="0"
       height="77.411896"
       width="35.187225"
       y="288.65625"
       x="341.27368" />
    <text
       xml:space="preserve"
       style="font-style:normal;font-weight:normal;font-size:12.5px;line-height:125%;font-family:sans-serif;letter-spacing:0px;word-spacing:0px;fill:#000000;fill-opacity:1;stroke:none;stroke-width:1px;stroke-linecap:butt;stroke-linejoin:miter;stroke-opacity:1"
       x="173.26405"
       y="496.27771"
       id="text4784-3"
       sodipodi:linespacing="125%"><tspan
         sodipodi:role="line"
         id="tspan4786-5"
         x="173.26405"
         y="496.27771">CPU #1</tspan></text>
    <text
       xml:space="preserve"
       style="font-style:normal;font-weight:normal;font-size:12.5px;line-height:125%;font-family:sans-serif;letter-spacing:0px;word-spacing:0px;fill:#000000;fill-opacity:1;stroke:none;stroke-width:1px;stroke-linecap:butt;stroke-linejoin:miter;stroke-opacity:1"
       x="246.52324"
       y="496.02209"
       id="text4784-3-6"
       sodipodi:linespacing="125%"><tspan
         sodipodi:role="line"
         id="tspan4786-5-2"
         x="246.52324"
         y="496.02209">CPU #2</tspan></text>
    <text
       xml:space="preserve"
       style="font-style:normal;font-weight:normal;font-size:12.5px;line-height:125%;font-family:sans-serif;letter-spacing:0px;word-spacing:0px;fill:#000000;fill-opacity:1;stroke:none;stroke-width:1px;stroke-linecap:butt;stroke-linejoin:miter;stroke-opacity:1"
       x="325.94592"
       y="495.84094"
       id="text4784-3-6-9"
       sodipodi:linespacing="125%"><tspan
         sodipodi:role="line"
         id="tspan4786-5-2-1"
         x="325.94592"
         y="495.84094">CPU #3</tspan></text>
    <text
       xml:space="preserve"
       style="font-style:normal;font-weight:normal;font-size:12.5px;line-height:125%;font-family:sans-serif;letter-spacing:0px;word-spacing:0px;fill:#000000;fill-opacity:1;stroke:none;stroke-width:1px;stroke-linecap:butt;stroke-linejoin:miter;stroke-opacity:1"
       x="411.54132"
       y="495.4838"
       id="text4784"
       sodipodi:linespacing="125%"><tspan
         sodipodi:role="line"
         id="tspan4786"
         x="411.54132"
         y="495.4838">GPU #1</tspan></text>
    <rect
       id="rect46"
       style="fill:#00b000;stroke:#000000;stroke-width:0.14159699;stroke-linecap:butt;stroke-linejoin:miter"
       rx="0"
       height="6.5358295"
       width="28.17239"
       y="356.31104"
       x="420.78448" />
    <rect
       id="rect48"
       style="fill:#00b000;stroke:#000000;stroke-width:0.14159699;stroke-linecap:butt;stroke-linejoin:miter"
       rx="0"
       height="6.5358295"
       width="28.17239"
       y="347.17831"
       x="420.78448" />
    <rect
       id="rect52"
       style="fill:#00b000;stroke:#000000;stroke-width:0.14159699;stroke-linecap:butt;stroke-linejoin:miter"
       rx="0"
       height="6.5358295"
       width="28.17239"
       y="338.01074"
       x="420.78448" />
    <rect
       id="rect54"
       style="fill:#00b000;stroke:#000000;stroke-width:0.14159699;stroke-linecap:butt;stroke-linejoin:miter"
       rx="0"
       height="6.5358295"
       width="28.17239"
       y="328.84314"
       x="420.78448" />
    <rect
       id="rect56-6"
       style="fill:#00b000;stroke:#000000;stroke-width:0.1939705;stroke-linecap:butt;stroke-linejoin:miter"
       rx="0"
       height="22.117941"
       width="28.120016"
       y="322.20087"
       x="344.54416" />
    <rect
       id="rect52-0"
       style="fill:#00b000;stroke:#000000;stroke-width:0.14159699;stroke-linecap:butt;stroke-linejoin:miter"
       rx="0"
       height="6.5358295"
       width="28.17239"
       y="319.74954"
       x="420.73523" />
    <rect
       id="rect54-6"
       style="fill:#00b000;stroke:#000000;stroke-width:0.14159699;stroke-linecap:butt;stroke-linejoin:miter"
       rx="0"
       height="6.5358295"
       width="28.17239"
       y="310.58194"
       x="420.73523" />
    <flowRoot
       xml:space="preserve"
       id="flowRoot4944"
       style="font-style:normal;font-weight:normal;font-size:12.5px;line-height:125%;font-family:sans-serif;letter-spacing:0px;word-spacing:0px;fill:#000000;fill-opacity:1;stroke:none;stroke-width:1px;stroke-linecap:butt;stroke-linejoin:miter;stroke-opacity:1"><flowRegion
         id="flowRegion4946"><rect
           id="rect4948"
           width="17.857143"
           height="59.285713"
           x="310"
           y="303.79077"
           style="font-size:12.5px" /></flowRegion><flowPara
         id="flowPara4950">quan</flowPara></flowRoot>    <flowRoot
       xml:space="preserve"
       id="flowRoot4952"
       style="font-style:normal;font-weight:normal;font-size:12.5px;line-height:125%;font-family:sans-serif;letter-spacing:0px;word-spacing:0px;fill:#000000;fill-opacity:1;stroke:none;stroke-width:1px;stroke-linecap:butt;stroke-linejoin:miter;stroke-opacity:1"
       transform="matrix(0,1,-1,0,590.45947,-213.9276)"><flowRegion
         id="flowRegion4954"><rect
           id="rect4956"
           width="184.28571"
           height="128.57143"
           x="-683.12872"
           y="268.79077"
           style="font-size:12.5px"
           transform="scale(-1,1)" /></flowRegion><flowPara
         id="flowPara4958"
         style="font-size:10px">quantité de travail</flowPara></flowRoot>  </g>
</svg>
