<?xml version="1.0" encoding="utf-8"?>
<!-- Generator: Adobe Illustrator 15.1.0, SVG Export Plug-In . SVG Version: 6.00 Build 0)  -->
<!DOCTYPE svg PUBLIC "-//W3C//DTD SVG 1.1//EN" "http://www.w3.org/Graphics/SVG/1.1/DTD/svg11.dtd">
<svg version="1.1" id="Ebene_1" xmlns="http://www.w3.org/2000/svg" xmlns:xlink="http://www.w3.org/1999/xlink" x="0px" y="0px"
	 width="261px" height="306px" viewBox="0 0 261 306" enable-background="new 0 0 261 306" xml:space="preserve">
<g>
	<g id="XMLID_8_">
		<g>
			<polygon fill="#FFFFFF" points="166.5,238.5 166.5,283.5 130.5,301.5 130.5,256.5 			"/>
			<polygon fill="#FFFFFF" points="166.5,238.5 130.5,256.5 94.5,238.5 130.5,220.5 			"/>
			<polygon fill="#FFFFFF" points="130.5,256.5 130.5,301.5 94.5,283.5 94.5,238.5 			"/>
		</g>
		<g>
			<line fill="none" stroke="#1A171B" stroke-linecap="round" x1="130.5" y1="256.5" x2="166.5" y2="238.5"/>
			<line fill="none" stroke="#1A171B" stroke-linecap="round" x1="130.5" y1="256.5" x2="130.5" y2="301.5"/>
			<line fill="none" stroke="#1A171B" stroke-linecap="round" x1="130.5" y1="256.5" x2="94.5" y2="238.5"/>
			<line fill="none" stroke="#1A171B" stroke-linecap="round" x1="94.5" y1="238.5" x2="130.5" y2="220.5"/>
			<line fill="none" stroke="#1A171B" stroke-linecap="round" x1="130.5" y1="220.5" x2="166.5" y2="238.5"/>
			<line fill="none" stroke="#1A171B" stroke-linecap="round" x1="94.5" y1="238.5" x2="94.5" y2="283.5"/>
			<line fill="none" stroke="#1A171B" stroke-linecap="round" x1="166.5" y1="238.5" x2="166.5" y2="283.5"/>
			<line fill="none" stroke="#1A171B" stroke-linecap="round" x1="130.5" y1="301.5" x2="94.5" y2="283.5"/>
			<line fill="none" stroke="#1A171B" stroke-linecap="round" x1="130.5" y1="301.5" x2="166.5" y2="283.5"/>
		</g>
	</g>
</g>
<g>
	<g>
		<line fill="none" stroke="#E1071D" stroke-width="4" stroke-linecap="round" x1="130.5" y1="238.5" x2="130.5" y2="193.5"/>
		<polygon fill="#E1071D" points="130.5,179.379 138.63,199.278 130.5,194.556 122.371,199.278 		"/>
	</g>
</g>
<g>
	<g id="XMLID_6_">
		<g>
			<polygon fill="#FFFFFF" points="76.5,85.5 76.5,130.5 40.5,148.5 40.5,103.5 			"/>
			<polygon fill="#FFFFFF" points="76.5,85.5 40.5,103.5 4.5,85.5 40.5,67.5 			"/>
			<polygon fill="#FFFFFF" points="40.5,103.5 40.5,148.5 4.5,130.5 4.5,85.5 			"/>
		</g>
		<g>
			<line fill="none" stroke="#1A171B" stroke-linecap="round" x1="40.5" y1="103.5" x2="76.5" y2="85.5"/>
			<line fill="none" stroke="#1A171B" stroke-linecap="round" x1="40.5" y1="103.5" x2="40.5" y2="148.5"/>
			<line fill="none" stroke="#1A171B" stroke-linecap="round" x1="40.5" y1="103.5" x2="4.5" y2="85.5"/>
			<line fill="none" stroke="#1A171B" stroke-linecap="round" x1="4.5" y1="85.5" x2="40.5" y2="67.5"/>
			<line fill="none" stroke="#1A171B" stroke-linecap="round" x1="40.5" y1="67.5" x2="76.5" y2="85.5"/>
			<line fill="none" stroke="#1A171B" stroke-linecap="round" x1="4.5" y1="85.5" x2="4.5" y2="130.5"/>
			<line fill="none" stroke="#1A171B" stroke-linecap="round" x1="76.5" y1="85.5" x2="76.5" y2="130.5"/>
			<line fill="none" stroke="#1A171B" stroke-linecap="round" x1="40.5" y1="148.5" x2="4.5" y2="130.5"/>
			<line fill="none" stroke="#1A171B" stroke-linecap="round" x1="40.5" y1="148.5" x2="76.5" y2="130.5"/>
		</g>
	</g>
</g>
<g>
	<g>
		<line fill="none" stroke="#E1071D" stroke-width="4" stroke-linecap="round" x1="58.5" y1="117" x2="94.5" y2="135"/>
		<polygon fill="#E1071D" points="107.13,141.315 85.696,139.688 93.556,134.528 92.967,125.146 		"/>
	</g>
</g>
<g>
	<g id="XMLID_3_">
		<g>
			<polygon fill="#FFFFFF" points="256.5,85.5 256.5,130.5 220.5,148.5 220.5,103.5 			"/>
			<polygon fill="#FFFFFF" points="256.5,85.5 220.5,103.5 184.5,85.5 220.5,67.5 			"/>
			<polygon fill="#FFFFFF" points="220.5,103.5 220.5,148.5 184.5,130.5 184.5,85.5 			"/>
		</g>
		<g>
			<line fill="none" stroke="#1A171B" stroke-linecap="round" x1="220.5" y1="103.5" x2="256.5" y2="85.5"/>
			<line fill="none" stroke="#1A171B" stroke-linecap="round" x1="220.5" y1="103.5" x2="220.5" y2="148.5"/>
			<line fill="none" stroke="#1A171B" stroke-linecap="round" x1="220.5" y1="103.5" x2="184.5" y2="85.5"/>
			<line fill="none" stroke="#1A171B" stroke-linecap="round" x1="184.5" y1="85.5" x2="220.5" y2="67.5"/>
			<line fill="none" stroke="#1A171B" stroke-linecap="round" x1="220.5" y1="67.5" x2="256.5" y2="85.5"/>
			<line fill="none" stroke="#1A171B" stroke-linecap="round" x1="184.5" y1="85.5" x2="184.5" y2="130.5"/>
			<line fill="none" stroke="#1A171B" stroke-linecap="round" x1="256.5" y1="85.5" x2="256.5" y2="130.5"/>
			<line fill="none" stroke="#1A171B" stroke-linecap="round" x1="220.5" y1="148.5" x2="184.5" y2="130.5"/>
			<line fill="none" stroke="#1A171B" stroke-linecap="round" x1="220.5" y1="148.5" x2="256.5" y2="130.5"/>
		</g>
	</g>
</g>
<g>
	<g>
		<line fill="none" stroke="#E1071D" stroke-width="4" stroke-linecap="round" x1="202.5" y1="117" x2="166.5" y2="135"/>
		<polygon fill="#E1071D" points="153.87,141.315 168.032,125.145 167.444,134.528 175.304,139.687 		"/>
	</g>
</g>
<g>
	<g id="XMLID_2_">
		<g>
			<polygon fill="#FFFFFF" points="166.5,130.5 166.5,175.5 130.5,193.5 130.5,148.5 			"/>
			<polygon fill="#FFFFFF" points="166.5,130.5 130.5,148.5 94.5,130.5 130.5,112.5 			"/>
			<polygon fill="#FFFFFF" points="130.5,148.5 130.5,193.5 94.5,175.5 94.5,130.5 			"/>
		</g>
		<g>
			<line fill="none" stroke="#1A171B" stroke-linecap="round" x1="130.5" y1="148.5" x2="166.5" y2="130.5"/>
			<line fill="none" stroke="#1A171B" stroke-linecap="round" x1="130.5" y1="148.5" x2="130.5" y2="193.5"/>
			<line fill="none" stroke="#1A171B" stroke-linecap="round" x1="130.5" y1="148.5" x2="94.5" y2="130.5"/>
			<line fill="none" stroke="#1A171B" stroke-linecap="round" x1="94.5" y1="130.5" x2="130.5" y2="112.5"/>
			<line fill="none" stroke="#1A171B" stroke-linecap="round" x1="130.5" y1="112.5" x2="166.5" y2="130.5"/>
			<line fill="none" stroke="#1A171B" stroke-linecap="round" x1="94.5" y1="130.5" x2="94.5" y2="175.5"/>
			<line fill="none" stroke="#1A171B" stroke-linecap="round" x1="166.5" y1="130.5" x2="166.5" y2="175.5"/>
			<line fill="none" stroke="#1A171B" stroke-linecap="round" x1="130.5" y1="193.5" x2="94.5" y2="175.5"/>
			<line fill="none" stroke="#1A171B" stroke-linecap="round" x1="130.5" y1="193.5" x2="166.5" y2="175.5"/>
		</g>
	</g>
</g>
<g>
	<g>
		<line fill="none" stroke="#E1071D" stroke-width="4" stroke-linecap="round" x1="67.5" y1="184.5" x2="103.5" y2="166.5"/>
		<polygon fill="#E1071D" points="116.13,160.185 101.967,176.355 102.556,166.972 94.696,161.813 		"/>
	</g>
</g>
<g>
	<g id="XMLID_1_">
		<g>
			<polygon fill="#FFFFFF" points="76.5,175.5 76.5,220.5 40.5,238.5 40.5,193.5 			"/>
			<polygon fill="#FFFFFF" points="76.5,175.5 40.5,193.5 4.5,175.5 40.5,157.5 			"/>
			<polygon fill="#FFFFFF" points="40.5,193.5 40.5,238.5 4.5,220.5 4.5,175.5 			"/>
		</g>
		<g>
			<line fill="none" stroke="#1A171B" stroke-linecap="round" x1="40.5" y1="193.5" x2="76.5" y2="175.5"/>
			<line fill="none" stroke="#1A171B" stroke-linecap="round" x1="40.5" y1="193.5" x2="40.5" y2="238.5"/>
			<line fill="none" stroke="#1A171B" stroke-linecap="round" x1="40.5" y1="193.5" x2="4.5" y2="175.5"/>
			<line fill="none" stroke="#1A171B" stroke-linecap="round" x1="4.5" y1="175.5" x2="40.5" y2="157.5"/>
			<line fill="none" stroke="#1A171B" stroke-linecap="round" x1="40.5" y1="157.5" x2="76.5" y2="175.5"/>
			<line fill="none" stroke="#1A171B" stroke-linecap="round" x1="4.5" y1="175.5" x2="4.5" y2="220.5"/>
			<line fill="none" stroke="#1A171B" stroke-linecap="round" x1="76.5" y1="175.5" x2="76.5" y2="220.5"/>
			<line fill="none" stroke="#1A171B" stroke-linecap="round" x1="40.5" y1="238.5" x2="4.5" y2="220.5"/>
			<line fill="none" stroke="#1A171B" stroke-linecap="round" x1="40.5" y1="238.5" x2="76.5" y2="220.5"/>
		</g>
	</g>
</g>
<g>
	<g>
		<line fill="none" stroke="#E1071D" stroke-width="4" stroke-linecap="round" x1="193.5" y1="184.5" x2="157.5" y2="166.5"/>
		<polygon fill="#E1071D" points="144.87,160.185 166.304,161.813 158.444,166.972 159.033,176.354 		"/>
	</g>
</g>
<g>
	<g id="XMLID_7_">
		<g>
			<polygon fill="#FFFFFF" points="256.5,175.5 256.5,220.5 220.5,238.5 220.5,193.5 			"/>
			<polygon fill="#FFFFFF" points="256.5,175.5 220.5,193.5 184.5,175.5 220.5,157.5 			"/>
			<polygon fill="#FFFFFF" points="220.5,193.5 220.5,238.5 184.5,220.5 184.5,175.5 			"/>
		</g>
		<g>
			<line fill="none" stroke="#1A171B" stroke-linecap="round" x1="220.5" y1="193.5" x2="256.5" y2="175.5"/>
			<line fill="none" stroke="#1A171B" stroke-linecap="round" x1="220.5" y1="193.5" x2="220.5" y2="238.5"/>
			<line fill="none" stroke="#1A171B" stroke-linecap="round" x1="220.5" y1="193.5" x2="184.5" y2="175.5"/>
			<line fill="none" stroke="#1A171B" stroke-linecap="round" x1="184.5" y1="175.5" x2="220.5" y2="157.5"/>
			<line fill="none" stroke="#1A171B" stroke-linecap="round" x1="220.5" y1="157.5" x2="256.5" y2="175.5"/>
			<line fill="none" stroke="#1A171B" stroke-linecap="round" x1="184.5" y1="175.5" x2="184.5" y2="220.5"/>
			<line fill="none" stroke="#1A171B" stroke-linecap="round" x1="256.5" y1="175.5" x2="256.5" y2="220.5"/>
			<line fill="none" stroke="#1A171B" stroke-linecap="round" x1="220.5" y1="238.5" x2="184.5" y2="220.5"/>
			<line fill="none" stroke="#1A171B" stroke-linecap="round" x1="220.5" y1="238.5" x2="256.5" y2="220.5"/>
		</g>
	</g>
</g>
<g>
	<g>
		<line fill="none" stroke="#E1071D" stroke-width="4" stroke-linecap="round" x1="130.5" y1="72" x2="130.5" y2="117"/>
		<polygon fill="#E1071D" points="130.5,131.121 122.37,111.222 130.5,115.944 138.629,111.222 		"/>
	</g>
</g>
<g>
	<g id="XMLID_5_">
		<g>
			<polygon fill="#FFFFFF" points="166.5,22.5 166.5,67.5 130.5,85.5 130.5,40.5 			"/>
			<polygon fill="#FFFFFF" points="166.5,22.5 130.5,40.5 94.5,22.5 130.5,4.5 			"/>
			<polygon fill="#FFFFFF" points="130.5,40.5 130.5,85.5 94.5,67.5 94.5,22.5 			"/>
		</g>
		<g>
			<line fill="none" stroke="#1A171B" stroke-linecap="round" x1="130.5" y1="40.5" x2="166.5" y2="22.5"/>
			<line fill="none" stroke="#1A171B" stroke-linecap="round" x1="130.5" y1="40.5" x2="130.5" y2="85.5"/>
			<line fill="none" stroke="#1A171B" stroke-linecap="round" x1="130.5" y1="40.5" x2="94.5" y2="22.5"/>
			<line fill="none" stroke="#1A171B" stroke-linecap="round" x1="94.5" y1="22.5" x2="130.5" y2="4.5"/>
			<line fill="none" stroke="#1A171B" stroke-linecap="round" x1="130.5" y1="4.5" x2="166.5" y2="22.5"/>
			<line fill="none" stroke="#1A171B" stroke-linecap="round" x1="94.5" y1="22.5" x2="94.5" y2="67.5"/>
			<line fill="none" stroke="#1A171B" stroke-linecap="round" x1="166.5" y1="22.5" x2="166.5" y2="67.5"/>
			<line fill="none" stroke="#1A171B" stroke-linecap="round" x1="130.5" y1="85.5" x2="94.5" y2="67.5"/>
			<line fill="none" stroke="#1A171B" stroke-linecap="round" x1="130.5" y1="85.5" x2="166.5" y2="67.5"/>
		</g>
	</g>
</g>
</svg>
